<svg xmlns="http://www.w3.org/2000/svg" viewBox="0 0 144.083 144">
  <path d="M72.04 14.166C40.1 14.166 14.208 40.06 14.208 72c0 31.94 25.893 57.834 57.832 57.834 31.941 0 57.836-25.895 57.836-57.834-.001-31.94-25.895-57.834-57.836-57.834zm17.505 53.883c-1.076 26.384-15.598 35.96-17.438 37.228-1.746 1.205-2.664.223-2.664.223s-8.512-9.178-9.75-10.797c-1.236-1.615.43-2.805.43-2.805 8.736-6.59 10.248-14.416 10.461-17.883H60c-3.295 0-5.965-2.671-5.965-5.966V44.088c0-3.295 2.67-5.966 5.965-5.966h23.58c3.295 0 5.965 2.671 5.965 5.966v23.961z" fill="#9b8b70"/>
</svg>
