<svg xmlns="http://www.w3.org/2000/svg" viewBox="0 0 196.25 252.91">
  <path d="M77.063 16.5a1.022 1.022 0 00.8-.43 17.269 17.269 0 011.682 11.53h-1a.9.9 0 00-.136.35 2.752 2.752 0 00-.057.4v.14c0 .41.123 1.11.482 1.11H98.36c.356 0 .478-.7.478-1.11v-.14a2.387 2.387 0 00-.054-.4.9.9 0 00-.139-.35h-1a17.268 17.268 0 011.688-11.53 1 1 0 00.8.43 1.935 1.935 0 10-1.238-1.81 2.415 2.415 0 00.068.58 12.747 12.747 0 00-3.845 5.72 21.312 21.312 0 00-.933 3.53c-.03.16-.023.12-.044.23a24.481 24.481 0 00-.3 2.85h-1.3c-.183-.01-2.451-.01-2.563 0h-.889c-.22-.01-.705 0-.973 0h-4.75a25.139 25.139 0 00-.308-2.85c-.028-.15 0-.01-.038-.23a21.015 21.015 0 00-.939-3.53 12.744 12.744 0 00-3.842-5.72 2.581 2.581 0 00.065-.58 1.326 1.326 0 10-1.241 1.81zm4.37-.13a.482.482 0 00.326-.16l1.943 10.74h9.779l1.946-10.74a.474.474 0 00.326.16c.407 0 .732-.71.732-1.57s-.325-1.57-.732-1.57-.729.7-.729 1.57a2.368 2.368 0 00.335 1.32c-1.227 4.29-2.275 6.78-3.058 5.84-1.34-1.59-1.289-4.94-1.255-8.27h.034c.519 0 .936-.9.936-2s-.417-2-.936-2-.933.9-.933 2c0 1.04.37 1.89.838 1.99-.729 3.57-1.478 6.8-2.394 6.85-.912-.05-1.661-3.28-2.393-6.85.467-.1.837-.95.837-1.99 0-1.1-.417-2-.932-2s-.937.9-.937 2 .421 2 .937 2h.033c.034 3.33.085 6.68-1.251 8.27-.783.94-1.834-1.55-3.058-5.84a2.393 2.393 0 00.335-1.32c0-.87-.325-1.57-.729-1.57s-.732.7-.732 1.57.326 1.57.732 1.57zm9.237 7.82l.41-1.41.4 1.41.41 1.4h-1.628zm-1.655 0l.407-1.41.4 1.41.407 1.4h-1.62zm-1.658 0l.407-1.41.4 1.41.41 1.4H86.95zm-1.658 0l.407-1.41.4 1.41.411 1.4h-1.631zm-8.792 6.64v.87a.4.4 0 00.346.43h22.684a.4.4 0 00.342-.43v-.87a.4.4 0 00-.342-.44H77.253a.4.4 0 00-.346.44zm117.677 3.04a1.833 1.833 0 00-1.631 1.7 65.506 65.506 0 01-11.647-1.09c-.8.04-1.618.08-2.425.11-10.528.48-21.1.71-26.821.84-.857.02-1.719.03-2.573.06a.644.644 0 00-.55-.36.655.655 0 00-.542.38c-.2 0-.4 0-.6.01a1.311 1.311 0 10-2.621.05c-1.461.03-2.906.05-4.313.08a8.944 8.944 0 001.445-.44 2.851 2.851 0 002.6-.74c1.133-1.2.587-3.72-.647-5.85 0 0 0 .06-.007.17a.583.583 0 00-.054-.1 3.329 3.329 0 01-.682 1.99 1.391 1.391 0 01-.149.14c-.7.59-1.577 1.15-2.129 1.72-.753.74-.967 1.51.552 2.39a5.5 5.5 0 01-2.359.72v-.13a4.194 4.194 0 00-.16-1.22 3.062 3.062 0 00-.545-1.07 2.93 2.93 0 00-.865-.73 3.708 3.708 0 00-.994-.38 5.425 5.425 0 00-2.047-.03 8.045 8.045 0 00-1.971.6 7.722 7.722 0 00-1.766 1.13 6.161 6.161 0 00-1.387 1.68 6.21 6.21 0 011.444-1.58 7.288 7.288 0 011.777-1.02 7.823 7.823 0 011.93-.51 5.13 5.13 0 011.953.11 3.345 3.345 0 01.9.37 2.628 2.628 0 01.733.66 2.589 2.589 0 01.444.92 3.711 3.711 0 01.109 1.06 6.35 6.35 0 01-.234 1.47 10.859 10.859 0 01-7.057 3.32 10.664 10.664 0 01-2.824-.18 2.4 2.4 0 00.458-1.43 2.1 2.1 0 00-1.933-2.23 1.694 1.694 0 00-1.045.36c-.1-.14-.2-.28-.3-.41a10.777 10.777 0 00-6.256-4.18 15.212 15.212 0 004.422-1.46 17.069 17.069 0 005.394-4.39 16.412 16.412 0 002.025-3.1 17.088 17.088 0 001.305-3.58 18.642 18.642 0 00.217-7.75 16.963 16.963 0 00-2.98-6.98 13.617 13.617 0 00-1.173-1.42l-.16-.17-.163-.17c-.091-.09-.217-.2-.329-.31-.227-.21-.454-.41-.695-.61a10.867 10.867 0 00-3.109-1.73 10.056 10.056 0 00-6.822.08 10.851 10.851 0 00-3.082 1.78 11.962 11.962 0 00-1.33 1.28 11.362 11.362 0 00-1.146 1.5 11.685 11.685 0 00-1.482 3.65 12.479 12.479 0 00-.2 4.01 11.808 11.808 0 001.092 3.79 10.11 10.11 0 002.241 3.03 6.954 6.954 0 003.16 1.69 6.446 6.446 0 003.456-.18 7.107 7.107 0 002.97-1.97 8.979 8.979 0 00.586-.72 6.668 6.668 0 00.506-.83 7 7 0 00.661-1.84 7.615 7.615 0 00-.187-3.88 6.337 6.337 0 00-2.01-3.06 4.032 4.032 0 00-3.178-.88 4.277 4.277 0 00-2.77 1.8 4.1 4.1 0 012.8-1.49 3.819 3.819 0 012.855 1.02 6.065 6.065 0 011.658 2.85 6.707 6.707 0 010 3.38 6.184 6.184 0 01-.624 1.53 4.884 4.884 0 01-.447.65 4.825 4.825 0 01-.532.6 5.85 5.85 0 01-2.588 1.54 5.434 5.434 0 01-2.885.03 5.813 5.813 0 01-2.55-1.47 9.464 9.464 0 01-2.665-5.81 10.184 10.184 0 01.223-3.32 9.324 9.324 0 011.269-2.96 10.623 10.623 0 01.973-1.25 10.047 10.047 0 011.139-1.07 9.127 9.127 0 012.625-1.5 8.5 8.5 0 015.781-.02 9.167 9.167 0 012.635 1.44c.2.16.4.33.59.5.091.09.176.17.281.28l.142.14.139.14a12.338 12.338 0 011.038 1.24 14.479 14.479 0 011.648 2.86 16.257 16.257 0 011.014 3.24 16.469 16.469 0 01-.078 6.86 15.444 15.444 0 01-2.845 6.08 16.55 16.55 0 01-4.873 4.27 14.573 14.573 0 01-5.95 1.86 13.839 13.839 0 01-4-.22 12.963 12.963 0 001.038-7.53 12.24 12.24 0 00-1.669-4.49 8.2 8.2 0 00-3.716-3.24 7.175 7.175 0 00-8.48 2.23 8.226 8.226 0 00-1.655 4.98 7.9 7.9 0 001.662 4.96 4.878 4.878 0 004.177 1.84 4.7 4.7 0 003.8-2.72 5.275 5.275 0 00-.431-5.11 2.867 2.867 0 00-4.208-.65 2.907 2.907 0 01.912-.41 2.705 2.705 0 012.245.45 3.7 3.7 0 011.309 2.07 4.488 4.488 0 01-1.434 4.63 3.95 3.95 0 01-4.5.23 5.665 5.665 0 01-2.391-4.06 7.1 7.1 0 011.075-4.94 6.168 6.168 0 018.158-1.86 7.62 7.62 0 012.978 3.27 11.656 11.656 0 01-.166 10.49 10.254 10.254 0 01-7.823 5.26 10.483 10.483 0 01-7.443-2.11h2.723a.391.391 0 00.342-.43v-.88a.391.391 0 00-.342-.43H77.253a.394.394 0 00-.346.43v.88a.394.394 0 00.346.43h2.719a10.49 10.49 0 01-7.446 2.11 10.259 10.259 0 01-7.82-5.26 11.662 11.662 0 01-.165-10.49 7.653 7.653 0 012.973-3.27 6.174 6.174 0 018.162 1.86 7.1 7.1 0 011.075 4.94 5.649 5.649 0 01-2.391 4.06 3.95 3.95 0 01-4.5-.23 4.49 4.49 0 01-1.437-4.63 3.7 3.7 0 011.312-2.07 2.7 2.7 0 012.241-.45 2.918 2.918 0 01.916.41 2.871 2.871 0 00-4.211.65 5.264 5.264 0 00-.424 5.11 4.686 4.686 0 003.794 2.72 4.874 4.874 0 004.177-1.84 7.921 7.921 0 001.662-4.96 8.219 8.219 0 00-1.655-4.98 7.173 7.173 0 00-8.477-2.23 8.194 8.194 0 00-3.72 3.24 12.233 12.233 0 00-1.664 4.49 12.984 12.984 0 001.03 7.53 13.824 13.824 0 01-4 .22 14.574 14.574 0 01-5.947-1.86 16.55 16.55 0 01-4.873-4.27 15.361 15.361 0 01-2.845-6.08 16.4 16.4 0 01-.074-6.86 16.046 16.046 0 011.006-3.24 14.7 14.7 0 011.652-2.86 12.465 12.465 0 011.037-1.24l.139-.14.143-.14c.1-.11.19-.19.281-.28.19-.17.39-.34.59-.5a9.167 9.167 0 012.635-1.44 8.505 8.505 0 015.781.02 9.222 9.222 0 012.628 1.5 10.345 10.345 0 011.133 1.07 9.426 9.426 0 012.244 4.21 10.24 10.24 0 01.227 3.32 9.484 9.484 0 01-2.668 5.81 5.847 5.847 0 01-2.55 1.47 5.449 5.449 0 01-2.889-.03 5.869 5.869 0 01-2.587-1.54 5.151 5.151 0 01-.529-.6 5.8 5.8 0 01-.451-.65 6.376 6.376 0 01-.621-1.53 6.73 6.73 0 010-3.38 6.06 6.06 0 011.655-2.85 3.822 3.822 0 012.855-1.02 4.1 4.1 0 012.8 1.49 4.277 4.277 0 00-2.771-1.8 4.034 4.034 0 00-3.177.88 6.393 6.393 0 00-2.014 3.06 7.582 7.582 0 00-.183 3.88 7 7 0 00.661 1.84 6.668 6.668 0 00.506.83c.186.25.379.49.586.72a7.107 7.107 0 002.97 1.97 6.433 6.433 0 003.452.18 6.972 6.972 0 003.167-1.69 10.221 10.221 0 002.238-3.03 11.624 11.624 0 001.085-3.79 12.173 12.173 0 00-.2-4.01 11.536 11.536 0 00-1.478-3.65 12.455 12.455 0 00-2.479-2.78A10.81 10.81 0 0059.457.64a10.058 10.058 0 00-6.823-.08 11.015 11.015 0 00-3.109 1.73c-.234.2-.465.4-.7.61-.108.11-.234.22-.329.31l-.159.17-.16.17A14.03 14.03 0 0047 4.97a17.038 17.038 0 00-2.977 6.98 18.642 18.642 0 00.217 7.75 16.714 16.714 0 001.309 3.58 15.967 15.967 0 002.021 3.1 16.993 16.993 0 005.394 4.39 15.162 15.162 0 004.425 1.46 10.774 10.774 0 00-6.259 4.18c-.1.13-.2.27-.3.41a1.7 1.7 0 00-1.044-.36 2.1 2.1 0 00-1.933 2.23 2.4 2.4 0 00.458 1.43 10.667 10.667 0 01-2.824.18 10.84 10.84 0 01-7.053-3.32 6.306 6.306 0 01-.241-1.47 3.822 3.822 0 01.112-1.06 2.577 2.577 0 011.176-1.58 3.365 3.365 0 01.9-.37 5.118 5.118 0 011.95-.11 7.7 7.7 0 011.929.51 7.269 7.269 0 011.78 1.02 6.2 6.2 0 011.445 1.58 6.431 6.431 0 00-1.383-1.68 7.77 7.77 0 00-1.774-1.13 7.986 7.986 0 00-1.963-.6 5.446 5.446 0 00-2.051.03 3.778 3.778 0 00-1 .38 2.945 2.945 0 00-.862.73 3.122 3.122 0 00-.549 1.07 4.446 4.446 0 00-.159 1.22c0 .05.006.09.006.13a5.47 5.47 0 01-2.465-.72c1.516-.88 1.306-1.65.553-2.39-.553-.57-1.434-1.13-2.129-1.72a1.168 1.168 0 01-.149-.14 3.3 3.3 0 01-.681-1.99.4.4 0 00-.054.1c-.007-.11-.007-.17-.007-.17-1.238 2.13-1.78 4.65-.648 5.85a2.854 2.854 0 002.6.74 8.734 8.734 0 001.445.44c-1.411-.03-2.852-.05-4.313-.08a1.311 1.311 0 10-2.621-.05c-.2-.01-.4-.01-.607-.01a.652.652 0 00-.542-.38.635.635 0 00-.546.36.152.152 0 00-.064-.01.612.612 0 000 .08 1.028 1.028 0 00.017 1.41c0 .26 0 .52.01.78a1.9 1.9 0 00.037 3.37c.023 1.89.04 3.74.057 5.57a17.284 17.284 0 00-.335-1.87 5.375 5.375 0 00-.573-3.36c-.929-1.46-2.889-.75-4.544.84a1.2 1.2 0 01.132.01.71.71 0 00-.075.07 1.958 1.958 0 011.546.88 2.039 2.039 0 01.108.19c.458.89.888 2.03 1.332 2.74.577.97 1.17 1.25 1.855-.71a10.853 10.853 0 01.563 3.18c-.037 0-.068-.01-.105-.01a2.109 2.109 0 00-.942.21 2.294 2.294 0 00-.838.71 3.856 3.856 0 00-.566 1.1 7.6 7.6 0 00-.292 1.29 11.86 11.86 0 00-.024 2.64 14.987 14.987 0 00.468 2.53 12.852 12.852 0 00.878 2.29 6.319 6.319 0 001.305 1.77 6.5 6.5 0 01-1.231-1.85 12.219 12.219 0 01-.794-2.29 14.824 14.824 0 01-.393-2.49 11.272 11.272 0 01.081-2.51 6.167 6.167 0 01.292-1.17 3.091 3.091 0 01.509-.94 1.757 1.757 0 01.715-.57 1.81 1.81 0 01.824-.15 3.416 3.416 0 011.143.31 18.782 18.782 0 012.57 9.09 22.779 22.779 0 01-.136 3.64 1.471 1.471 0 00-1.112-.59c-.956 0-1.729 1.12-1.729 2.49a3.393 3.393 0 00.275 1.35c-.108.12-.214.25-.312.38a16.311 16.311 0 00-3.242 8.07 29.569 29.569 0 00-1.132-5.71 23.4 23.4 0 00-3.408-6.95 14.094 14.094 0 00-2.408-2.6 10.613 10.613 0 00-2.784-1.69 8.831 8.831 0 00-6.015-.27 11.376 11.376 0 00-5.412 3.83 14.822 14.822 0 00-1.105 1.52l-.129.2-.126.2c-.075.12-.166.29-.251.44-.163.29-.316.58-.465.88a18.308 18.308 0 00-1.346 4.01 21.2 21.2 0 00.061 8.8 18.033 18.033 0 001.387 3.97 14.289 14.289 0 00.987 1.71 10.734 10.734 0 001.17 1.48 7.615 7.615 0 002.828 1.91 5.9 5.9 0 003.109.26 6.757 6.757 0 002.947-1.4 10.079 10.079 0 002.35-2.89 11.824 11.824 0 001.305-4.08 13.5 13.5 0 00-.132-4.45 11.059 11.059 0 00-1.529-3.83c-.177-.26-.367-.51-.563-.75a5.566 5.566 0 00-.634-.65 4.525 4.525 0 00-1.427-.86 3.724 3.724 0 00-3.025.24 5.675 5.675 0 00-2.37 2.6 7.825 7.825 0 00-.678 4.09 6.407 6.407 0 001.4 3.56 6.7 6.7 0 01-1.16-3.6 7.051 7.051 0 01.8-3.68 4.862 4.862 0 012.211-2.13 3.194 3.194 0 012.621.01 3.942 3.942 0 011.18.8 4.224 4.224 0 01.509.58 5.093 5.093 0 01.468.68 9.581 9.581 0 011.2 3.34 11.546 11.546 0 01.02 3.71 9.522 9.522 0 01-1.139 3.29 6.7 6.7 0 01-4.51 3.43 4.832 4.832 0 01-2.574-.29 6.3 6.3 0 01-2.306-1.63 9.88 9.88 0 01-.966-1.26 13.252 13.252 0 01-.834-1.46 15.259 15.259 0 01-1.159-3.38 17.9 17.9 0 01-.017-7.45 15.2 15.2 0 011.119-3.4c.125-.26.254-.51.39-.76.071-.12.129-.23.207-.36l.112-.19.112-.17a14 14 0 01.963-1.34 11.555 11.555 0 012.225-2.13 9.424 9.424 0 012.512-1.3 7.805 7.805 0 015.327.1 11 11 0 014.713 3.67 21.44 21.44 0 013.31 6.27 28.2 28.2 0 011.452 7.67 30.506 30.506 0 01-.17 5.16 6.593 6.593 0 00-5.846-1.34 7.747 7.747 0 00-3.489 2.16 10.82 10.82 0 00-2.516 4.79c-.94 3.7-.353 8.25 1.733 10.92a5.029 5.029 0 003.865 2.13 4.8 4.8 0 003.845-2.14 8.5 8.5 0 001.428-5.38 6.739 6.739 0 00-2.106-4.89 2.78 2.78 0 00-3.967.55 5.36 5.36 0 00-.5 5.42 5.176 5.176 0 01-.325-1.17 5.4 5.4 0 01.353-2.9 3.168 3.168 0 011.6-1.68c1.333-.58 2.828.17 3.594 1.85a7.954 7.954 0 01.183 5.8 4.71 4.71 0 01-3.157 3.08 3.882 3.882 0 01-3.835-1.39 9.239 9.239 0 01-1.936-4.6 12.593 12.593 0 01.5-5.91 8.5 8.5 0 012.536-3.84 5.958 5.958 0 018.141.22c2.391 2.15 3.808 6.09 4.082 10.07a20.508 20.508 0 01-1.638 9.59v-3.5a.4.4 0 00-.339-.44h-.67a.4.4 0 00-.332.44v29.23a.394.394 0 00.332.44h.678a.4.4 0 00.339-.44v-3.5a20.508 20.508 0 011.638 9.59c-.275 3.98-1.692 7.92-4.082 10.08a5.968 5.968 0 01-8.141.21 8.526 8.526 0 01-2.536-3.83 12.668 12.668 0 01-.5-5.92 9.239 9.239 0 011.936-4.6 3.9 3.9 0 013.835-1.39 4.71 4.71 0 013.157 3.08 7.954 7.954 0 01-.183 5.8c-.766 1.68-2.261 2.44-3.594 1.85a3.155 3.155 0 01-1.6-1.69 5.324 5.324 0 01-.353-2.88 5.412 5.412 0 01.325-1.18 5.363 5.363 0 00.5 5.42 2.771 2.771 0 003.967.55 6.739 6.739 0 002.106-4.89 8.5 8.5 0 00-1.428-5.38 4.829 4.829 0 00-3.845-2.14 5 5 0 00-3.865 2.13c-2.085 2.67-2.672 7.22-1.733 10.92a10.82 10.82 0 002.516 4.79 7.638 7.638 0 003.489 2.15 6.558 6.558 0 005.846-1.33 30.506 30.506 0 01.17 5.16 28.2 28.2 0 01-1.452 7.67 21.626 21.626 0 01-3.31 6.28 10.9 10.9 0 01-4.713 3.66 7.805 7.805 0 01-5.327.1 9.142 9.142 0 01-2.512-1.3 11.261 11.261 0 01-2.225-2.13 12.842 12.842 0 01-.963-1.34l-.112-.18-.112-.18c-.078-.13-.136-.24-.207-.36-.135-.25-.264-.5-.39-.76a15.369 15.369 0 01-1.119-3.4 17.9 17.9 0 01.017-7.45 15.175 15.175 0 011.159-3.37 13.405 13.405 0 01.834-1.47 10.64 10.64 0 01.966-1.26 6.18 6.18 0 012.306-1.63 4.832 4.832 0 012.574-.29 6.7 6.7 0 014.51 3.43 9.522 9.522 0 011.139 3.29 11.608 11.608 0 01-.02 3.72 9.528 9.528 0 01-1.2 3.33 6.961 6.961 0 01-.468.69 4.134 4.134 0 01-.509.57 4.176 4.176 0 01-1.18.81 3.194 3.194 0 01-2.621 0 4.837 4.837 0 01-2.211-2.14 6.993 6.993 0 01-.8-3.67 6.723 6.723 0 011.16-3.6 6.437 6.437 0 00-1.4 3.56 7.791 7.791 0 00.678 4.09 5.675 5.675 0 002.37 2.6 3.764 3.764 0 003.025.24 4.525 4.525 0 001.427-.86 4.879 4.879 0 00.634-.65 8.669 8.669 0 00.563-.75 10.98 10.98 0 001.529-3.83 13.5 13.5 0 00.132-4.45 11.824 11.824 0 00-1.305-4.08 9.9 9.9 0 00-2.35-2.88 6.668 6.668 0 00-2.947-1.41 5.806 5.806 0 00-3.109.27 7.468 7.468 0 00-2.828 1.9 10.167 10.167 0 00-1.17 1.48 14.289 14.289 0 00-.987 1.71 17.853 17.853 0 00-1.387 3.97 21.2 21.2 0 00-.061 8.8 18.047 18.047 0 001.346 4c.149.31.3.61.465.9.085.14.176.31.251.43l.126.2.129.2a14.822 14.822 0 001.105 1.52 11.468 11.468 0 005.412 3.84 9.013 9.013 0 006.015-.28 10.847 10.847 0 002.784-1.68 14.488 14.488 0 002.408-2.61 23.285 23.285 0 003.408-6.95 29.618 29.618 0 001.132-5.7 16.312 16.312 0 003.242 8.06c.1.13.2.26.312.38a3.43 3.43 0 00-.275 1.35c0 1.38.773 2.49 1.729 2.49a1.441 1.441 0 001.112-.59 22.779 22.779 0 01.136 3.64 18.782 18.782 0 01-2.57 9.09 3.2 3.2 0 01-1.143.31 1.821 1.821 0 01-1.539-.71 3.272 3.272 0 01-.509-.95 6.259 6.259 0 01-.292-1.16 11.362 11.362 0 01-.081-2.52 14.707 14.707 0 01.393-2.48 11.74 11.74 0 01.794-2.29 6.757 6.757 0 011.231-1.87 6.521 6.521 0 00-1.305 1.78 12.852 12.852 0 00-.878 2.29 14.987 14.987 0 00-.468 2.53 11.86 11.86 0 00.024 2.64 7.387 7.387 0 00.292 1.29 4.054 4.054 0 00.566 1.11 2.172 2.172 0 00.838.7 2.109 2.109 0 00.942.21c.034 0 .064-.01.095-.01a10.658 10.658 0 01-.552 3.05c-.685-1.96-1.278-1.69-1.855-.72-.444.71-.875 1.85-1.332 2.75-.034.06-.071.13-.108.19a1.993 1.993 0 01-1.546.88c.027.02.051.04.075.06a1.2 1.2 0 01-.132.01c1.655 1.59 3.615 2.3 4.544.84a5.359 5.359 0 00.573-3.36 16.647 16.647 0 00.335-1.86c-.017 1.82-.034 3.68-.057 5.56a1.905 1.905 0 00-.037 3.38c-.007.26-.007.52-.01.77a1.041 1.041 0 00-.017 1.42c-.014 1.1-.031 2.2-.044 3.31-.095 7.36-.275 21-.648 34.56-.031 1.04-.058 2.09-.092 3.13a135.933 135.933 0 01.851 15 2.1 2.1 0 00-1.316 2.1 1.724 1.724 0 103.34 0 2.1 2.1 0 00-1.336-2.11 138.266 138.266 0 01.844-14.97v-.02c-.031-1.04-.061-2.09-.088-3.13-.373-13.56-.55-27.2-.648-34.56-.017-1.11-.027-2.21-.041-3.31a1 1 0 00.268-.71.972.972 0 00-.288-.71c0-.25-.007-.51-.01-.77a1.908 1.908 0 00-.037-3.38c-.02-1.88-.044-3.74-.061-5.56a17.367 17.367 0 00.339 1.86 5.357 5.357 0 00.573 3.36c.932 1.46 2.889.75 4.544-.84a1.2 1.2 0 01-.132-.01c.027-.02.051-.04.075-.06a1.989 1.989 0 01-1.546-.88c-.041-.06-.078-.13-.112-.19-.455-.89-.889-2.03-1.326-2.74-.584-.98-1.173-1.25-1.862.71a10.87 10.87 0 01-.556-3.14 5.033 5.033 0 001.156-.46 6.244 6.244 0 001.624-1.3 8.84 8.84 0 001.3-1.91 13.873 13.873 0 00.925-2.32 24.585 24.585 0 00.919-5.11 36.683 36.683 0 00.047-5.25c-.105-1.75-.312-3.47-.556-5.17-.21-1.41-.437-2.81-.671-4.19a17.493 17.493 0 012.468-2.28 12.6 12.6 0 00-1.038-.87 13.953 13.953 0 01-2.3-2.54c-.01-.08-.02-.15-.03-.23a49.661 49.661 0 01-.4-5.07c-.017-.85 0-1.71.044-2.55.034-.66.092-1.32.173-1.97.156-.48.305-.97.438-1.46a15.824 15.824 0 00.478-2.87c.1-.34.22-.67.346-.99a8.735 8.735 0 01.471-1.05 5 5 0 01.6-.88 1.743 1.743 0 01.733-.51.873.873 0 01.773.15 1.935 1.935 0 01.58.82 4.633 4.633 0 01.3 1.14 7.688 7.688 0 01-.112 2.49 9.536 9.536 0 01-2.014 4.16 8.5 8.5 0 001.292-1.8 9.113 9.113 0 00.882-2.28 7.922 7.922 0 00.183-2.63 5.3 5.3 0 00-.3-1.28 2.329 2.329 0 00-.675-.99 1.074 1.074 0 00-.973-.24 1.862 1.862 0 00-.878.57 5.12 5.12 0 00-.682.94 9.094 9.094 0 00-.461.95 19.887 19.887 0 00-.19-2.88c-.017-.14-.041-.27-.064-.41a2.813 2.813 0 00.861-2.15c0-1.38-.773-2.49-1.729-2.49a1.236 1.236 0 00-.617.17c-.132-.27-.268-.52-.41-.76-.234-.41-.488-.8-.753-1.18a3.225 3.225 0 00.363-1.52c0-1.38-.777-2.5-1.729-2.5s-1.729 1.12-1.729 2.5.777 2.49 1.729 2.49a1.473 1.473 0 001.133-.62 10.4 10.4 0 01.987 1.91 3.208 3.208 0 00-.051 3.94 15.717 15.717 0 00-.946 1.91c-.244.58-.471 1.19-.671 1.83a19.533 19.533 0 00-2.282-8.27v-20.81a19.533 19.533 0 002.282-8.27c.2.64.427 1.25.671 1.83a15.026 15.026 0 00.946 1.91 3.208 3.208 0 00.051 3.94 9.705 9.705 0 01-.987 1.9 1.48 1.48 0 00-1.133-.6c-.953 0-1.729 1.11-1.729 2.49s.777 2.48 1.729 2.48 1.729-1.11 1.729-2.48a3.237 3.237 0 00-.363-1.53c.265-.38.519-.77.753-1.18.142-.24.278-.5.41-.76a1.236 1.236 0 00.617.17c.956 0 1.729-1.11 1.729-2.49a2.813 2.813 0 00-.861-2.15c.024-.14.047-.27.064-.41a19.749 19.749 0 00.19-2.87 10 10 0 00.461.94 5.12 5.12 0 00.682.94 1.862 1.862 0 00.878.57 1.068 1.068 0 00.973-.23 2.428 2.428 0 00.675-1 5.3 5.3 0 00.3-1.28 7.922 7.922 0 00-.183-2.63 9.337 9.337 0 00-2.174-4.09 10.018 10.018 0 011.221 1.88 9.658 9.658 0 01.794 2.28 7.712 7.712 0 01.112 2.49 4.6 4.6 0 01-.3 1.15 1.935 1.935 0 01-.58.82.873.873 0 01-.773.15 1.743 1.743 0 01-.733-.51 4.651 4.651 0 01-.6-.88 8.735 8.735 0 01-.471-1.05c-.126-.32-.244-.66-.346-.99a15.973 15.973 0 00-.478-2.87c-.133-.49-.282-.98-.438-1.46-.081-.65-.139-1.31-.173-1.97-.048-.85-.061-1.69-.044-2.55a50.314 50.314 0 01.4-5.08c.01-.07.02-.14.03-.22a13.564 13.564 0 012.3-2.53c.333-.3.709-.54 1.038-.89a17.337 17.337 0 01-2.468-2.26c.234-1.39.461-2.79.671-4.2.244-1.7.451-3.42.556-5.16a36.809 36.809 0 00-.047-5.26 24.585 24.585 0 00-.919-5.11 13.433 13.433 0 00-.925-2.31 8.91 8.91 0 00-1.3-1.92 6.244 6.244 0 00-1.624-1.3 5.055 5.055 0 00-1.16-.46 11.039 11.039 0 01.559-3.27c.688 1.96 1.278 1.68 1.862.7.437-.7.871-1.84 1.326-2.73a1.438 1.438 0 01.112-.19 1.976 1.976 0 01.905-.74 2.718 2.718 0 01.577-1.17 1.168 1.168 0 01.149-.14c.692-.59 1.577-1.15 2.123-1.72.76-.74.974-1.51-.546-2.39a5.573 5.573 0 012.533-.73 8.74 8.74 0 00.366 1.5 8.548 8.548 0 001.008 2.1 8.142 8.142 0 001.481 1.67 9 9 0 001.8 1.19 12.592 12.592 0 003.967 1.19 17.4 17.4 0 004.08.06 30.185 30.185 0 004.008-.71c1.092-.27 2.174-.58 3.258-.87a22.432 22.432 0 011.757 3.18c.268-.43.454-.91.685-1.34a15.585 15.585 0 011.97-2.97l.166-.03a24.075 24.075 0 013.947-.52 16.3 16.3 0 011.976.05 13.226 13.226 0 011.526.23c.377.2.753.39 1.136.57a7.947 7.947 0 002.225.61 7.937 7.937 0 01.769.44 8.1 8.1 0 01.814.61 4.6 4.6 0 01.678.77 2.453 2.453 0 01.4.95 1.662 1.662 0 01-.115.99 1.9 1.9 0 01-.634.75 2.459 2.459 0 01-.888.39 3.756 3.756 0 01-1.933-.15 5.629 5.629 0 01-1.767-1.01 8.869 8.869 0 01-1.465-1.58 9.153 9.153 0 001.4 1.67 5.991 5.991 0 001.773 1.13 3.726 3.726 0 002.034.23 2.656 2.656 0 001-.38 2.112 2.112 0 00.96-2.12 2.926 2.926 0 00-.444-1.14 4.676 4.676 0 00-.736-.87 6.539 6.539 0 00-.729-.6 9.26 9.26 0 002.228-.24c.112-.03.217-.05.322-.08a1.9 1.9 0 001.672 1.1 2.094 2.094 0 001.932-2.23 2.625 2.625 0 00-.129-.79c.2-.17.4-.34.584-.53a11.864 11.864 0 00.915-.97 1.786 1.786 0 001.187.47 2.252 2.252 0 10-1.936-2.23 2.444 2.444 0 00.474 1.46 7.447 7.447 0 01-1.478 1.27 1.845 1.845 0 00-1.549-.9 1.821 1.821 0 00-1.51.84 10.409 10.409 0 00-1.485-1.22 12.442 12.442 0 00-1.417-.87 10.949 10.949 0 006.419-2.94h16.15a10.933 10.933 0 006.419 2.94 12.1 12.1 0 00-1.417.87 10.253 10.253 0 00-1.486 1.22 1.822 1.822 0 00-1.5-.84 1.848 1.848 0 00-1.553.9 7.5 7.5 0 01-1.482-1.27 2.419 2.419 0 00.475-1.46 1.953 1.953 0 10-1.933 2.23 1.806 1.806 0 001.19-.47 11.764 11.764 0 00.906.97c.193.19.389.36.593.53a2.425 2.425 0 00-.132.79 2.094 2.094 0 001.936 2.23 1.893 1.893 0 001.665-1.1c.108.03.213.05.322.08a9.3 9.3 0 002.231.24 6.965 6.965 0 00-.733.6 4.529 4.529 0 00-.728.87 2.837 2.837 0 00-.445 1.14 2.112 2.112 0 00.18 1.25 2.157 2.157 0 00.773.87 2.674 2.674 0 001 .38 3.727 3.727 0 002.034-.23 5.991 5.991 0 001.773-1.13 9.133 9.133 0 001.4-1.67 8.6 8.6 0 01-1.461 1.58 5.673 5.673 0 01-1.767 1.01 3.753 3.753 0 01-1.933.15 2.473 2.473 0 01-.891-.39 1.921 1.921 0 01-.631-.75 1.663 1.663 0 01-.119-.99 2.476 2.476 0 01.4-.95 4.3 4.3 0 01.678-.77 7.673 7.673 0 01.814-.61 7.88 7.88 0 01.773-.44 8.034 8.034 0 002.221-.61q.574-.27 1.136-.57a13.258 13.258 0 011.526-.23 16.261 16.261 0 011.973-.05 24.111 24.111 0 013.95.52l.166.03a16.141 16.141 0 011.974 2.97c.223.43.413.91.681 1.34a21.862 21.862 0 011.76-3.18c1.078.29 2.163.6 3.255.87a29.959 29.959 0 004.012.71 17.363 17.363 0 004.075-.06 12.576 12.576 0 003.967-1.19 8.87 8.87 0 001.794-1.19 7.976 7.976 0 001.489-1.67 8.654 8.654 0 001.007-2.1 8.8 8.8 0 00.359-1.49 5.607 5.607 0 012.431.72c-1.519.88-1.3 1.65-.546 2.39.546.57 1.431 1.13 2.123 1.72a1.391 1.391 0 01.149.14 3.329 3.329 0 01.682 1.99c.02-.04.037-.07.054-.1.007.11.007.17.007.17 1.234-2.13 1.78-4.65.644-5.85a2.816 2.816 0 00-2.6-.74 8.959 8.959 0 00-1.445-.43c1.407.02 2.852.05 4.313.07a1.311 1.311 0 102.621.05c.2.01.4.01.6.01a.6.6 0 001.092.03c.854.02 1.716.03 2.573.05 5.717.13 16.293.36 26.821.84.807.04 1.621.07 2.425.11h.023a65.19 65.19 0 0111.621-1.09 1.828 1.828 0 001.634 1.71 2.219 2.219 0 00-.005-4.3zM24.729 146.2a10.24 10.24 0 001.441-1.64 14.772 14.772 0 001.875-3.83c0 .15.007.32.01.47-.305.69-.607 1.39-.9 2.08a27.164 27.164 0 00-2.038 6.54 30.3 30.3 0 00-.388-3.62zm5.29 15.48a1.561 1.561 0 00-1.268.8 11.825 11.825 0 01-2.407-6.67 12.564 12.564 0 012.645 3.11 14 14 0 011.231 2.78 1.307 1.307 0 00-.201-.02zm2.441-7.21c.207 1.25.411 2.51.59 3.77.248 1.67.455 3.36.563 5.06a37.528 37.528 0 01-.027 5.09 23.871 23.871 0 01-.841 4.9 10.641 10.641 0 01-2.028 3.99 5.842 5.842 0 01-1.492 1.25c-.041.02-.078.04-.115.06a13.469 13.469 0 001.831-3.19 20.462 20.462 0 001.468-5.69 30.608 30.608 0 00-.024-7.18 22.485 22.485 0 00-1.505-5.6 3.7 3.7 0 01.451-.85 13.889 13.889 0 011.129-1.61zm-.682-1.29a1.67 1.67 0 01.265.35c0 .01-.173.2-.224.26-.091.12-.152.23-.207.29-.441.6-.78 1.31-1.18 1.88a20.774 20.774 0 00-1.807-3.08 18.686 18.686 0 001.584-2.43 19.542 19.542 0 001.569 2.73zm-.393-6.17a16.276 16.276 0 01-1.407-3.86c.105-.23.21-.47.312-.71.3-.69.617-1.43.915-2.2v.02c-.057.88-.075 1.76-.064 2.63.017 1.38.112 2.76.244 4.12zm-1.5-14.18a19.924 19.924 0 011.126-3.42 1.451 1.451 0 00.471.21 15.393 15.393 0 01-.132 2.08 19.241 19.241 0 01-1.1 4.21c-.275.76-.573 1.51-.882 2.26a23.018 23.018 0 01.515-5.34zm-.1 16.68a15.268 15.268 0 01-3.418 4.36c0-.05.007-.1.007-.14a20.657 20.657 0 011.651-6.03c.207-.55.431-1.08.654-1.6a17.561 17.561 0 001.103 3.41zm-1.031-83.66a1.561 1.561 0 001.268.8c.068 0 .136-.01.2-.01a14.169 14.169 0 01-1.231 2.77 12.748 12.748 0 01-2.645 3.11 11.854 11.854 0 012.405-6.67zm-.705 21.75a14.772 14.772 0 00-1.875-3.83 10.24 10.24 0 00-1.441-1.64 30.079 30.079 0 00.39-3.62 27.164 27.164 0 002.038 6.54c.291.69.593 1.39.9 2.08-.009.16-.012.31-.016.47zm.631-5.37c-.224-.52-.447-1.05-.654-1.59a20.724 20.724 0 01-1.651-6.04c0-.04 0-.09-.007-.13a15.083 15.083 0 013.418 4.35 17.788 17.788 0 00-1.11 3.41zm2.333 16.69a19.924 19.924 0 01-1.126-3.42 22.985 22.985 0 01-.512-5.33c.308.74.607 1.5.882 2.25a19.39 19.39 0 011.1 4.21 15.437 15.437 0 01.132 2.09 1.244 1.244 0 00-.48.2zm.2-10.85v.02c-.3-.77-.61-1.51-.915-2.2-.1-.23-.207-.47-.312-.71a16.032 16.032 0 011.407-3.85c-.132 1.35-.227 2.73-.244 4.11-.018.88-.001 1.75.056 2.63zm.573-12.92a19.542 19.542 0 00-1.57 2.73 20.28 20.28 0 00-1.584-2.44 19.688 19.688 0 001.807-3.07c.4.57.739 1.28 1.18 1.87.054.08.115.17.207.3.051.07.224.25.224.26a1.67 1.67 0 01-.272.35zM29.233 49.8a5.842 5.842 0 011.492 1.25 10.764 10.764 0 012.028 4 23.659 23.659 0 01.841 4.89 37.528 37.528 0 01.027 5.09c-.109 1.7-.316 3.38-.563 5.07-.179 1.25-.383 2.5-.59 3.76a13.889 13.889 0 01-1.129-1.61 3.7 3.7 0 01-.451-.85 22.4 22.4 0 001.505-5.59 30.693 30.693 0 00.024-7.19 20.555 20.555 0 00-1.468-5.69 13.469 13.469 0 00-1.831-3.19c.029.02.067.04.107.06zm5.554-12.98a2.818 2.818 0 00-2.6.74 3.588 3.588 0 00-.4 3.4c-1.065-.47-2.054-.41-2.638.51a5.323 5.323 0 00-.573 3.35 18.057 18.057 0 00-.339 1.87c.017-1.83.041-3.68.061-5.57a1.9 1.9 0 00.037-3.37l.01-.78a.738.738 0 00.166-.23.773.773 0 00.176-.22c.2 0 .4 0 .607-.01a1.311 1.311 0 102.621-.05c1.462-.02 2.9-.05 4.313-.07a8.752 8.752 0 00-1.449.43zm28.958-4.95a11.363 11.363 0 001.268 1.86 10.817 10.817 0 002.97 2.42c-.118 0-.241 0-.359.01-.539-.39-1.079-.79-1.624-1.16a15.593 15.593 0 00-5.07-2.62 14.928 14.928 0 002.807-.51zm-7.464 2.08a13.547 13.547 0 01-2.41 3.41 9.241 9.241 0 01-2.157 1.58c.007-.08.014-.16.014-.25a2.379 2.379 0 00-.617-1.63 7.479 7.479 0 015.162-3.11zM54.4 42.6a31.547 31.547 0 01-3.93.72 17.337 17.337 0 01-3.944-.04 11.838 11.838 0 01-3.8-1.08 8.037 8.037 0 01-3.1-2.61 7.718 7.718 0 01-.966-1.93c-.02-.05-.034-.1-.051-.14a11.11 11.11 0 002.478 2.36 11.383 11.383 0 004.416 1.89 14.314 14.314 0 005.574-.03 12.982 12.982 0 004.347-1.94 2.7 2.7 0 01.658.58 13.446 13.446 0 011.248 1.45c-.992.27-1.962.53-2.938.77zm3.926-1.65a1.473 1.473 0 01-.271.34 2.758 2.758 0 01-.207-.28c-.1-.13-.173-.2-.227-.27-.465-.57-1.014-1.01-1.455-1.52a16.606 16.606 0 002.384-2.33 17.622 17.622 0 001.892 2.04 16.067 16.067 0 00-2.124 2.02zm2.845-2.57a15.477 15.477 0 01-3.381-4.4.381.381 0 01.106.01 11.534 11.534 0 014.686 2.12c.42.27.83.56 1.237.85a10.563 10.563 0 00-2.656 1.42zm7.178 1.84a13.977 13.977 0 00-2.044-.08 22.714 22.714 0 00-3.187.31 10.039 10.039 0 012.99-1.82c.183.14.363.27.543.41.546.39 1.118.79 1.712 1.18h-.014zm5.765-1.7a10.934 10.934 0 012.658 1.45 2.386 2.386 0 00-.162.6 7.474 7.474 0 01-1.621-.17 10.925 10.925 0 01-3.262-1.41c-.587-.35-1.17-.74-1.75-1.14a10.937 10.937 0 014.129.67zm28.093 1.88a7.414 7.414 0 01-1.615.17 2.386 2.386 0 00-.162-.6 10.689 10.689 0 016.8-2.12c-.58.4-1.163.79-1.75 1.14a10.9 10.9 0 01-3.28 1.41zm23.888-3.34a2.331 2.331 0 00-.621 1.63c0 .09.007.17.01.25a9.26 9.26 0 01-2.149-1.58 13.363 13.363 0 01-2.415-3.41 7.5 7.5 0 015.167 3.11zm-13.91-3.33a11.139 11.139 0 001.272-1.86 14.945 14.945 0 002.811.51 15.544 15.544 0 00-5.066 2.62c-.542.37-1.081.77-1.624 1.16-.119-.01-.241-.01-.359-.01a10.727 10.727 0 002.958-2.42zm-1.288 6.41a13.977 13.977 0 00-2.044.08h-.014c.593-.39 1.17-.79 1.709-1.18.179-.14.363-.27.549-.41a10.061 10.061 0 012.987 1.82 22.656 22.656 0 00-3.195-.31zm2.482-3.18c.407-.29.817-.58 1.238-.85a11.517 11.517 0 014.689-2.12.354.354 0 01.1-.01 15.574 15.574 0 01-3.377 4.4 10.594 10.594 0 00-2.658-1.42zm5.975 4.05c-.054.07-.193.28-.207.28a1.5 1.5 0 01-.271-.34 16.255 16.255 0 00-2.116-2.02 17.306 17.306 0 001.885-2.04 16.654 16.654 0 002.391 2.33c-.441.51-.991.95-1.458 1.52-.059.07-.137.14-.232.27zm19.195-3.35a7.855 7.855 0 01-.966 1.93 7.981 7.981 0 01-3.106 2.61 11.782 11.782 0 01-3.8 1.08 17.366 17.366 0 01-3.947.04 31.413 31.413 0 01-3.93-.72c-.976-.24-1.949-.5-2.923-.77a13.767 13.767 0 011.245-1.45 2.669 2.669 0 01.664-.58 12.919 12.919 0 004.347 1.94 14.3 14.3 0 005.571.03 11.372 11.372 0 004.415-1.89 11.1 11.1 0 002.476-2.36zM11.4 97.71a1.609 1.609 0 000 3.19 1.09 1.09 0 00.444-.09 11.506 11.506 0 004.449 4.95 11.226 11.226 0 002.73 1.21c.169.05.064.01.179.05a13.071 13.071 0 002.211.4v6.12c0 .34-.007.97 0 1.25v1.15c-.007.14-.007 3.06 0 3.31v1.67a11.341 11.341 0 00-2.211.39c-.088.03-.054.01-.179.05a11.226 11.226 0 00-2.73 1.21 11.506 11.506 0 00-4.449 4.95 1.281 1.281 0 00-.444-.08 1.6 1.6 0 101.4 1.59 1.67 1.67 0 00-.336-1.03 8.94 8.94 0 018.945-2.18v1.3a.6.6 0 00.275.17 1.621 1.621 0 00.309.08h.112a.776.776 0 00.858-.62v-25.17a.776.776 0 00-.858-.62.422.422 0 00-.105.01.834.834 0 00-.309.07.543.543 0 00-.275.18v1.28a8.893 8.893 0 01-8.945-2.17 1.662 1.662 0 00.336-1.02 1.507 1.507 0 00-1.407-1.6zm-.787 19.54a1.448 1.448 0 00-1.546-1.07 1.236 1.236 0 101.553 1.19.217.217 0 000-.04c2.59-.05 5.188-.11 6.422 1.61.726 1.02-1.2 2.37-4.534 3.94a1.328 1.328 0 00-1.021-.43.971.971 0 101.214.94.788.788 0 00-.129-.42l8.341-2.51v-12.59l-8.341-2.51a.788.788 0 00.129-.42 1.258 1.258 0 10-1.214.94 1.328 1.328 0 001.021-.43c3.33 1.57 5.259 2.93 4.534 3.94-1.234 1.72-3.832 1.66-6.422 1.61a.214.214 0 000-.05 1.6 1.6 0 10-1.553 1.21 1.455 1.455 0 001.546-1.08c2.77.94 5.279 1.91 5.31 3.09-.03 1.17-2.54 2.14-5.31 3.08zm8.155-6.82l1.088-.52v2.1l-1.088-.53-1.1-.52zm0 2.14l1.088-.52v2.1l-1.088-.53-1.1-.52zm0 2.14l1.088-.53v2.1l-1.088-.52-1.1-.52zm0 2.13l1.088-.52v2.1l-1.088-.53-1.1-.52zm5.825 12.38a.4.4 0 00.342-.44V99.55a.4.4 0 00-.342-.44h-.674a.4.4 0 00-.336.44v29.23a.394.394 0 00.336.44h.675z" fill="#bbb2a3" fill-rule="evenodd"/>
</svg>
