<svg xmlns="http://www.w3.org/2000/svg" viewBox="0 0 254.406 29.09">
  <path d="M138.554 22.23a6.163 6.163 0 00-1.212-3.02 6.248 6.248 0 003.136-1.95 6.056 6.056 0 001.441-4.7 6.243 6.243 0 00-6.908-5.44 6.611 6.611 0 00-.991.21c-.042-.05-.075-.11-.125-.16-.018-.01-.039-.03-.057-.04a5.624 5.624 0 00-2.751-5.64 6.933 6.933 0 00-4.17-.77A6.589 6.589 0 00122 3.57a5.294 5.294 0 00-.722 2.76 5.351 5.351 0 00-1.155.88c-.021.02-.032.04-.052.06a6.077 6.077 0 00-1.652-.07 6.247 6.247 0 00-4.182 2.29 6.074 6.074 0 00-1.317 4.53 6.261 6.261 0 003.928 5.06 6.11 6.11 0 00-1.037 4.16 6.242 6.242 0 006.9 5.44 6.307 6.307 0 004.347-2.51 6.209 6.209 0 002.218 2.11 6.315 6.315 0 003.787.77 6.245 6.245 0 004.182-2.29 6.033 6.033 0 001.309-4.53zm-3.389-13.82a5 5 0 012.982.61 4.894 4.894 0 012.46 3.68 4.8 4.8 0 01-1.132 3.72 4.944 4.944 0 01-1.814 1.28 5.35 5.35 0 00.05-.55 4.374 4.374 0 01-2.455-6.63 4.375 4.375 0 00-.442-2.03c.118-.02.227-.06.351-.08zm-10.191 15.34a3.217 3.217 0 01-.948-2.58l.072-.87c-.1-.04-.2-.08-.3-.13l-.726.37a3.336 3.336 0 01-3.781-.59 3.205 3.205 0 01-.013-4.57 3.315 3.315 0 012.19-.95h.092a5.526 5.526 0 00-.1 1.71 5.646 5.646 0 002.843 4.26 5.733 5.733 0 003.447.7 5.631 5.631 0 002.553-.97l.136.51a3.2 3.2 0 01-.841 3.09 3.347 3.347 0 01-4.624.02zm-3.921-15.63a3.135 3.135 0 013.771-.76 3.96 3.96 0 011.591 1.87l.32.69a2.33 2.33 0 00-.263.01 5.648 5.648 0 00-4.559 3.37l-.14-.08a3.26 3.26 0 01-1.832-2.31 3.431 3.431 0 011.112-2.79zm6.577 1.07a3.288 3.288 0 01.712-1.08 3.358 3.358 0 014.624-.01 3.17 3.17 0 01-.122 4.69l-.522.45a.757.757 0 01.121.32 5.645 5.645 0 00-5.093-3.66zm-1.011 2.03a4.308 4.308 0 11-3.848 4.77 4.372 4.372 0 013.848-4.77zm4.8 8.7l-.466-.29a5.559 5.559 0 001.812-4.75 5.008 5.008 0 00-.214-.97l.7.02a3.335 3.335 0 012.171.94 3.195 3.195 0 01.014 4.57 3.342 3.342 0 01-4.013.48zm-4.357-17.9a5.546 5.546 0 013.368.61 4.118 4.118 0 012.1 3.64 4.628 4.628 0 00-5.127.93 5.839 5.839 0 00-.4.44 4.708 4.708 0 00-1.536-1.42 4.067 4.067 0 00-2.876-.41 3.778 3.778 0 01.525-1.56 5.247 5.247 0 013.95-2.23zm-12.837 11.85a4.809 4.809 0 011.041-3.57 4.943 4.943 0 013.3-1.8c.211-.02.418-.02.629-.02a4.317 4.317 0 00-.562 2.59 3.992 3.992 0 001.263 2.38 4.55 4.55 0 00-1.556 1.01 4.484 4.484 0 00-1.33 3.21.1.1 0 000 .03 4.961 4.961 0 01-2.785-3.83zm8.33 13.51a4.91 4.91 0 01-5.439-4.29 4.7 4.7 0 01.655-2.93 4.589 4.589 0 00.584.71 4.671 4.671 0 004.377 1.18 4.511 4.511 0 001.312 2.62 4.876 4.876 0 00.966.73 5.933 5.933 0 00.686.31 4.913 4.913 0 01-3.141 1.67zm13.654-1.43a4.983 4.983 0 01-6.287 1.2 4.8 4.8 0 01-1.481-1.32 4.522 4.522 0 003.423-4.31 4.644 4.644 0 004.513-1.17.511.511 0 00.082-.09 4.877 4.877 0 01.787 2.12 4.8 4.8 0 01-1.037 3.57zm-10.5-7.99a2.84 2.84 0 004.239-2.76 2.925 2.925 0 00-3.152-2.49 2.808 2.808 0 00-1.089 5.25zm1.232-3.95a1.53 1.53 0 01.935.19 1.473 1.473 0 01.76 1.14 1.505 1.505 0 01-.324 1.12 1.538 1.538 0 01-2.721-.78 1.516 1.516 0 011.348-1.67zm28.5-5.99c1.725-2.35 3.041 2.93 6.643 3.79-2.545.12-8.351-1.44-6.641-3.79zm13.938 1.28c1.723-2.35 3.041 2.93 6.644 3.79-2.548.11-8.353-1.44-6.642-3.79zm-13.938 10.21c1.725 2.35 3.041-2.94 6.643-3.79-2.545-.12-8.351 1.44-6.641 3.79zm13.938-1.27c1.723 2.35 3.039-2.94 6.64-3.8-2.544-.11-8.349 1.44-6.638 3.8zm1.042-5.57c-2.381-.1-6-.14-8.655-2.13-3.147-2.36-1.419-4.63-1.841-7.8 2.229.94 4.714.22 6.075 3.12.871 1.85.985 5.06 4.423 6.81zm.066 2.23c-2.385.11-6.007.15-8.657 2.14-3.146 2.36-1.419 4.62-1.837 7.79 2.228-.93 4.711-.21 6.071-3.12.873-1.84.985-5.05 4.425-6.81zm81.245-.29H141.015v-1.66h110.719v1.66zm-98.54 5.06c-2.073-.44-3.226.5-3.6 2.1a2 2 0 002.094 2.54c.572-.1 1.23-.15 1.128.53-.009.73-.535 1.48-2.608 1.05-2.042-.29-3.5-3.01-2.943-5.96.366-2.09 2.9-4.68 7.015-5.32h-4.2a7.61 7.61 0 00-4.4 5.09c-.568 3.32 1.193 6.87 4.4 7.45 3.29.65 5.432-1.34 5.807-3.3a3.591 3.591 0 00-2.691-4.18zm-3.344-6.72h3.952c-3.889-.73-6.27-3.22-6.626-5.25-.561-2.94.9-5.67 2.945-5.96 2.072-.43 2.6.32 2.6 1.05.1.68-.555.64-1.125.53a2.007 2.007 0 00-2.094 2.54c.369 1.6 1.52 2.54 3.594 2.11a3.6 3.6 0 002.693-4.18c-.376-1.97-2.518-3.96-5.808-3.31-3.211.59-4.97 4.14-4.4 7.45a7.559 7.559 0 004.271 5.02zm-50.9-5.32c-1.724-2.35-3.04 2.94-6.642 3.8 2.549.11 8.353-1.45 6.644-3.8zM85.009 8.91c-1.723-2.35-3.039 2.94-6.64 3.79 2.548.12 8.355-1.44 6.642-3.79zm13.939 10.22c-1.724 2.35-3.04-2.94-6.642-3.8 2.549-.11 8.353 1.45 6.644 3.8zm-13.937-1.28c-1.722 2.35-3.039-2.93-6.642-3.79 2.552-.11 8.355 1.44 6.644 3.79zm-1.044-5.57c2.384-.1 6.007-.13 8.655-2.13 3.147-2.35 1.422-4.63 1.844-7.8-2.234.94-4.715.23-6.077 3.13-.864 1.84-.98 5.05-4.42 6.8zm-.064 2.24c2.383.1 6.005.14 8.655 2.13 3.146 2.36 1.421 4.63 1.841 7.8-2.231-.94-4.712-.22-6.077-3.12-.865-1.85-.979-5.06-4.417-6.81zm-81.246-.29h110.721v-1.66H2.659v1.66zm98.54 5.05c2.074-.43 3.225.51 3.6 2.11a2.009 2.009 0 01-2.095 2.54c-.573-.11-1.229-.15-1.127.53.007.72.535 1.48 2.607 1.05 2.045-.29 3.5-3.02 2.943-5.96-.365-2.1-2.9-4.68-7.016-5.32h4.2a7.618 7.618 0 014.406 5.09c.565 3.31-1.195 6.86-4.406 7.45-3.29.65-5.43-1.34-5.8-3.31a3.589 3.589 0 012.691-4.18zm3.345-6.71h-3.95c3.891-.74 6.271-3.23 6.628-5.25.56-2.95-.9-5.67-2.945-5.96-2.07-.43-2.6.32-2.606 1.05-.1.68.558.63 1.126.53a2 2 0 012.094 2.54c-.369 1.6-1.522 2.53-3.592 2.11a3.606 3.606 0 01-2.693-4.19c.374-1.96 2.518-3.95 5.806-3.3 3.209.58 4.968 4.13 4.4 7.44a7.548 7.548 0 01-4.266 5.03zm149.85 1.21a1.746 1.746 0 11-1.745-1.72 1.736 1.736 0 011.747 1.72zm-250.9-.28a1.746 1.746 0 11-1.745-1.73 1.733 1.733 0 011.745 1.73z" fill="#beb5a6" fill-rule="evenodd"/>
</svg>
